<?xml version="1.0" encoding="UTF-8" standalone="no"?>
<svg
   fill="none"
   viewBox="0 0 31.084536 31.084536"
   stroke-width="1.5"
   stroke="currentColor"
   class="w-6 h-6"
   version="1.1"
   id="svg1"
   sodipodi:docname="icon.svg"
   inkscape:version="1.3.2 (091e20e, 2023-11-25, custom)"
   width="31.084536"
   height="31.084536"
   xmlns:inkscape="http://www.inkscape.org/namespaces/inkscape"
   xmlns:sodipodi="http://sodipodi.sourceforge.net/DTD/sodipodi-0.dtd"
   xmlns="http://www.w3.org/2000/svg"
   xmlns:svg="http://www.w3.org/2000/svg">
  <defs
     id="defs1" />
  <sodipodi:namedview
     id="namedview1"
     pagecolor="#2b2b2b"
     bordercolor="#ffffff"
     borderopacity="1"
     inkscape:showpageshadow="0"
     inkscape:pageopacity="0"
     inkscape:pagecheckerboard="true"
     inkscape:deskcolor="#2b2b2b"
     showborder="false"
     inkscape:zoom="20.208333"
     inkscape:cx="16.329897"
     inkscape:cy="17.517526"
     inkscape:window-width="1920"
     inkscape:window-height="1057"
     inkscape:window-x="-8"
     inkscape:window-y="-8"
     inkscape:window-maximized="1"
     inkscape:current-layer="svg1" />
  <rect
     style="fill:#000000;fill-opacity:1;stroke:none;stroke-width:0.35908;stroke-opacity:1"
     id="rect1"
     width="31.084536"
     height="31.084536"
     x="0"
     y="0"
     ry="6.4329896"
     inkscape:export-filename="image\icon-512x512.png"
     inkscape:export-xdpi="1581.2365"
     inkscape:export-ydpi="1581.2365" />
  <path
     stroke-linecap="round"
     stroke-linejoin="round"
     d="M 15.542268,10.038838 A 8.2537698,8.2537698 0 0 0 10.019505,7.9291424 c -0.9683248,0 -1.89799,0.1656829 -2.761382,0.4712758 V 21.516982 a 8.272179,8.272179 0 0 1 2.761382,-0.471276 c 2.121662,0 4.05739,0.79804 5.522763,2.109696 m 0,-13.116564 a 8.2528493,8.2528493 0 0 1 5.522764,-2.1096956 c 0.968324,0 1.897989,0.1656829 2.761381,0.4712758 V 21.516982 a 8.272179,8.272179 0 0 0 -2.761381,-0.471276 8.2537698,8.2537698 0 0 0 -5.522764,2.109696 m 0,-13.116564 v 13.116564"
     id="path1"
     style="stroke:#ffffff;stroke-width:1.38069;stroke-opacity:1" />
</svg>
